solid mesh
  facet normal -1.5258788721439487e-07 0.0 1.0
    outer loop
      vertex 0.9765627384185791 -1.0714350938796997 -1.3281248807907104
      vertex -0.5859372615814209 1.600000023841858 -1.3281251192092896
      vertex -0.5859372615814209 -1.0714350938796997 -1.3281251192092896
    endloop
  endfacet
  facet normal -1.5258788721439487e-07 0.0 1.0
    outer loop
      vertex 0.9765627384185791 -1.0714350938796997 -1.3281248807907104
      vertex 0.9765627384185791 1.600000023841858 -1.3281248807907104
      vertex -0.5859372615814209 1.600000023841858 -1.3281251192092896
    endloop
  endfacet
  facet normal 0.9992009997367859 0.0 0.03996822237968445
    outer loop
      vertex -0.5859372615814209 -1.0714350938796997 -1.3281251192092896
      vertex -0.6249999403953552 1.600000023841858 -0.35156261920928955
      vertex -0.6249999403953552 -1.0714350938796997 -0.35156261920928955
    endloop
  endfacet
  facet normal 0.9992009997367859 -0.0 0.03996822237968445
    outer loop
      vertex -0.5859372615814209 -1.0714350938796997 -1.3281251192092896
      vertex -0.5859372615814209 1.600000023841858 -1.3281251192092896
      vertex -0.6249999403953552 1.600000023841858 -0.35156261920928955
    endloop
  endfacet
  facet normal -1.525879156361043e-07 0.0 1.0
    outer loop
      vertex -0.6249999403953552 -1.0714350938796997 -0.35156261920928955
      vertex -1.0156248807907104 1.600000023841858 -0.3515626788139343
      vertex -1.0156248807907104 -1.0714350938796997 -0.3515626788139343
    endloop
  endfacet
  facet normal -1.525879156361043e-07 0.0 1.0
    outer loop
      vertex -0.6249999403953552 -1.0714350938796997 -0.35156261920928955
      vertex -0.6249999403953552 1.600000023841858 -0.35156261920928955
      vertex -1.0156248807907104 1.600000023841858 -0.3515626788139343
    endloop
  endfacet
  facet normal 1.0 0.0 2.906435838667676e-07
    outer loop
      vertex -1.0156248807907104 -1.0714350938796997 -0.3515626788139343
      vertex -1.0156251192092896 1.600000023841858 0.4687498211860657
      vertex -1.0156251192092896 -1.0714350938796997 0.4687498211860657
    endloop
  endfacet
  facet normal 1.0 -0.0 2.906435838667676e-07
    outer loop
      vertex -1.0156248807907104 -1.0714350938796997 -0.3515626788139343
      vertex -1.0156248807907104 1.600000023841858 -0.3515626788139343
      vertex -1.0156251192092896 1.600000023841858 0.4687498211860657
    endloop
  endfacet
  facet normal 1.7951516895209352e-07 0.0 -1.0
    outer loop
      vertex -1.0156251192092896 -1.0714350938796997 0.4687498211860657
      vertex 0.9765624403953552 1.600000023841858 0.4687501788139343
      vertex 0.9765624403953552 -1.0714350938796997 0.4687501788139343
    endloop
  endfacet
  facet normal 1.7951516895209352e-07 0.0 -1.0
    outer loop
      vertex -1.0156251192092896 -1.0714350938796997 0.4687498211860657
      vertex -1.0156251192092896 1.600000023841858 0.4687498211860657
      vertex 0.9765624403953552 1.600000023841858 0.4687501788139343
    endloop
  endfacet
  facet normal -1.0 0.0 -1.658564059425771e-07
    outer loop
      vertex 0.9765624403953552 -1.0714350938796997 0.4687501788139343
      vertex 0.9765627384185791 1.600000023841858 -1.3281248807907104
      vertex 0.9765627384185791 -1.0714350938796997 -1.3281248807907104
    endloop
  endfacet
  facet normal -1.0 0.0 -1.658564059425771e-07
    outer loop
      vertex 0.9765624403953552 -1.0714350938796997 0.4687501788139343
      vertex 0.9765624403953552 1.600000023841858 0.4687501788139343
      vertex 0.9765627384185791 1.600000023841858 -1.3281248807907104
    endloop
  endfacet
  facet normal 0.0 -1.0 0.0
    outer loop
      vertex -0.6249999403953552 1.600000023841858 -0.35156261920928955
      vertex -0.5859372615814209 1.600000023841858 -1.3281251192092896
      vertex 0.9765627384185791 1.600000023841858 -1.3281248807907104
    endloop
  endfacet
  facet normal 0.0 -1.0 0.0
    outer loop
      vertex 0.9765627384185791 1.600000023841858 -1.3281248807907104
      vertex 0.9765624403953552 1.600000023841858 0.4687501788139343
      vertex -1.0156251192092896 1.600000023841858 0.4687498211860657
    endloop
  endfacet
  facet normal 0.0 -1.0 0.0
    outer loop
      vertex -1.0156251192092896 1.600000023841858 0.4687498211860657
      vertex -1.0156248807907104 1.600000023841858 -0.3515626788139343
      vertex -0.6249999403953552 1.600000023841858 -0.35156261920928955
    endloop
  endfacet
  facet normal 0.0 -1.0 0.0
    outer loop
      vertex -0.6249999403953552 1.600000023841858 -0.35156261920928955
      vertex 0.9765627384185791 1.600000023841858 -1.3281248807907104
      vertex -1.0156251192092896 1.600000023841858 0.4687498211860657
    endloop
  endfacet
endsolid mesh