solid Exported from Blender-3.6.2
facet normal 0.000000 0.000000 1.000000
outer loop
vertex -3.941435 -1.895665 -1.092764
vertex 2.058565 -1.895666 -1.092764
vertex 2.058565 2.104334 -1.092764
endloop
endfacet
facet normal 0.000000 0.000000 1.000000
outer loop
vertex -3.941435 -1.895665 -1.092764
vertex 2.058565 2.104334 -1.092764
vertex -3.941436 2.104334 -1.092764
endloop
endfacet
facet normal -1.000000 0.000000 0.000000
outer loop
vertex 2.058565 -1.895666 -1.092764
vertex 2.058565 -1.895666 1.907236
vertex 2.058565 2.104334 1.907236
endloop
endfacet
facet normal -1.000000 0.000000 0.000000
outer loop
vertex 2.058565 -1.895666 -1.092764
vertex 2.058565 2.104334 1.907236
vertex 2.058565 2.104334 -1.092764
endloop
endfacet
facet normal 1.000000 0.000000 -0.000000
outer loop
vertex -3.941436 2.104334 -1.092764
vertex -3.941436 2.104334 1.907236
vertex -3.941435 -1.895665 1.907236
endloop
endfacet
facet normal 1.000000 0.000000 -0.000000
outer loop
vertex -3.941436 2.104334 -1.092764
vertex -3.941435 -1.895665 1.907236
vertex -3.941435 -1.895665 -1.092764
endloop
endfacet
facet normal 0.000000 -1.000000 0.000000
outer loop
vertex 2.058565 2.104334 -1.092764
vertex 2.058565 2.104334 1.907236
vertex -3.941436 2.104334 1.907236
endloop
endfacet
facet normal 0.000000 -1.000000 0.000000
outer loop
vertex 2.058565 2.104334 -1.092764
vertex -3.941436 2.104334 1.907236
vertex -3.941436 2.104334 -1.092764
endloop
endfacet
facet normal 0.000000 1.000000 -0.000000
outer loop
vertex -3.941435 -1.895665 -1.092764
vertex -3.941435 -1.895665 1.907236
vertex 2.058565 -1.895666 1.907236
endloop
endfacet
facet normal 0.000000 1.000000 0.000000
outer loop
vertex -3.941435 -1.895665 -1.092764
vertex 2.058565 -1.895666 1.907236
vertex 2.058565 -1.895666 -1.092764
endloop
endfacet
facet normal 0.000000 -0.000000 -1.000000
outer loop
vertex -3.941436 2.104334 1.907236
vertex 2.058565 2.104334 1.907236
vertex 2.058565 -1.895666 1.907236
endloop
endfacet
facet normal -0.000000 -0.000000 -1.000000
outer loop
vertex -3.941436 2.104334 1.907236
vertex 2.058565 -1.895666 1.907236
vertex -3.941435 -1.895665 1.907236
endloop
endfacet
endsolid Exported from Blender-3.6.2
